<svg width="276" height="25" viewBox="0 0 276 25" xmlns="http://www.w3.org/2000/svg" xmlns:xlink="http://www.w3.org/1999/xlink"><defs><path id="a" d="M0 .085h56.186v24.69H0z"/></defs><g fill="none" fill-rule="evenodd"><path fill="currentColor" d="M81.311 8.738l-4.874 13.26h-3.496l-4.927-18.91h3.708l3.338 13.5 4.874-13.5h2.834l4.662 13.74 3.893-13.74h3.656l-5.589 18.91h-3.47zM109.24 13.167v-1.034c0-4.085-1.721-6.1-4.98-6.1-3.31 0-4.953 2.095-4.953 6.073v1.061c0 3.872 1.643 5.914 4.954 5.914 3.258 0 4.98-1.962 4.98-5.914m-13.748.106v-1.3c0-5.967 3.55-9.256 8.768-9.256 5.218 0 8.794 3.21 8.794 9.257v1.3c0 6.18-3.497 9.15-8.82 9.15-5.51 0-8.742-2.865-8.742-9.15M119.3 6.218v5.915h4.08c2.49 0 4.025-.902 4.025-2.97v-.08c0-1.936-1.218-2.865-3.947-2.865H119.3zm0 9.07v6.71h-3.655V3.089h7.893c5.404 0 7.629 2.15 7.629 5.756 0 2.599-1.166 4.058-3.39 4.774 2.065.636 3.019 2.016 3.019 4.8v2.52c0 .45.132.849.424 1.06h-3.868c-.29-.185-.397-.662-.397-1.113v-2.44c0-2.307-.954-3.156-3.682-3.156H119.3zM134.109 21.999V3.089h3.708V18.55h9.8v3.448zM153.658 6.245V18.79h3.417c3.364 0 5.324-1.83 5.324-5.835v-.822c0-4.031-2.013-5.888-5.483-5.888h-3.258zm-3.629-3.156h7.073c5.191 0 9.006 2.785 9.006 8.831v1.3c0 5.968-3.603 8.779-8.847 8.779h-7.232V3.089zM167.83 15.421h3.948c.185 2.626 1.668 3.793 4.794 3.793 2.702 0 3.92-1.14 3.92-2.679.026-1.989-2.145-2.307-5.297-2.758-3.55-.557-6.649-1.458-6.649-5.543 0-3.024 2.357-5.517 7.231-5.517 5.298 0 7.788 2.229 8.08 6.207h-3.842c-.238-2.202-1.483-3.13-4.29-3.13-2.544 0-3.47 1.088-3.47 2.387 0 1.803 1.88 2.148 4.9 2.626 3.84.583 6.992 1.485 7.019 5.596 0 3.395-2.596 6.02-7.682 6.02-6.065 0-8.343-2.44-8.661-7.002M194.162 6.298v15.7h-3.735v-15.7h-5.51v-3.21h14.993v3.21zM206.03 6.218v5.915h4.08c2.49 0 4.026-.902 4.026-2.97v-.08c0-1.936-1.219-2.865-3.947-2.865h-4.159zm0 9.07v6.71h-3.655V3.089h7.893c5.404 0 7.63 2.15 7.63 5.756 0 2.599-1.166 4.058-3.391 4.774 2.065.636 3.02 2.016 3.02 4.8v2.52c0 .45.131.849.423 1.06h-3.867c-.292-.185-.397-.662-.397-1.113v-2.44c0-2.307-.954-3.156-3.683-3.156h-3.973zM235.275 21.999h-14.436V3.089h13.986v3.156h-10.437v4.641h8.847v3.156h-8.847v4.695h10.887zM243.064 14.705h5.749l-2.861-7.559-.053-.264-.053.264-2.782 7.56zm6.94 3.077h-8.079l-1.536 4.217h-3.787l7.39-18.91h3.814l7.575 18.91h-3.788l-1.588-4.217zM260.628 8.579v13.42h-3.523V3.089h3.417l5.934 7.85 5.986-7.824h3.337V22h-3.496V8.446l-.265.424-5.43 6.923h-.45l-5.324-6.923z"/><g transform="translate(0 .14)"><mask id="b" fill="#fff"><use xlink:href="#a"/></mask><path fill="currentColor" mask="url(#b)" d="M52.308.085h-6.101L42.33 12.43H35.02L31.144.085h-6.102L21.165 12.43h-7.309L9.98.085H3.877L0 12.43h10.582l3.878 12.345h6.101L24.44 12.43h7.308l3.878 12.345h6.101l3.878-12.345h10.582z"/></g></g></svg>
