<svg viewBox="0 0 45 64" xmlns="http://www.w3.org/2000/svg"><g fill="none" fill-rule="current"><path d="M2.054 56.66a16.463 16.463 0 0011.535 4.662c4.345 0 8.423-1.65 11.534-4.662a11.634 11.634 0 00-11.534-9.938A11.634 11.634 0 002.054 56.66m11.535 6.662a18.465 18.465 0 01-13.304-5.6 1 1 0 01-.279-.806 13.63 13.63 0 0113.583-12.194 13.632 13.632 0 0113.583 12.194 1 1 0 01-.28.806 18.464 18.464 0 01-13.303 5.6" fill="currentColor"/><path d="M13.59 36.65a4.044 4.044 0 00-4.04 4.04 4.043 4.043 0 004.04 4.038 4.043 4.043 0 004.038-4.039 4.044 4.044 0 00-4.039-4.039m0 10.078A6.046 6.046 0 017.55 40.69a6.046 6.046 0 016.04-6.039 6.046 6.046 0 016.038 6.04 6.046 6.046 0 01-6.039 6.038M23.171 34.29a1 1 0 01-.997-.926l-.379-5.104H8.005a4.635 4.635 0 01-4.63-4.63v-2.5a1 1 0 112 0v2.5c0 1.45 1.18 2.63 2.63 2.63h14.718a1 1 0 01.997.925l.325 4.371 8.158-5.142a.994.994 0 01.533-.154h7.323c1.45 0 2.63-1.18 2.63-2.63v-19c0-1.45-1.18-2.63-2.63-2.63H8.004c-1.45 0-2.63 1.18-2.63 2.63v2.5a1 1 0 11-2 0v-2.5A4.635 4.635 0 018.004 0H40.06a4.635 4.635 0 014.63 4.63v19a4.635 4.635 0 01-4.63 4.63h-7.034l-9.32 5.875a1 1 0 01-.534.154" fill="currentColor"/><path d="M4.374 18.13a1 1 0 01-1-1v-6a1 1 0 112 0v6a1 1 0 01-1 1" fill="#FABB05"/><path d="M32.995 10.251h-19.17a1 1 0 110-2h19.17a1 1 0 110 2M32.995 14.748h-19.17a1 1 0 110-2h19.17a1 1 0 110 2M23.41 19.245h-9.585a1 1 0 110-2h9.585a1 1 0 110 2" fill="currentColor"/></g></svg>
