<svg viewBox="0 0 45 60" xmlns="http://www.w3.org/2000/svg"><g fill="none" fill-rule="evenodd"><path d="M30.645.793A1 1 0 0131.624 0H37a1 1 0 01.937 1.349l-5.21 14a1 1 0 01-.937.651H13.21a1 1 0 01-.937-.651l-5.21-14A1 1 0 018 0h5.377a1 1 0 01.979.793l.683 3.23h3.959l-.184-2.96A1 1 0 0119.812 0h5.376a1 1 0 01.998 1.062l-.184 2.96h3.96l.683-3.23zM12.567 2H9.439l4.466 12h17.19l4.466-12h-3.127l-.684 3.23a1 1 0 01-.978.792h-5.834a1 1 0 01-.998-1.062L24.124 2h-3.248l.184 2.96a1 1 0 01-.998 1.062h-5.834a1 1 0 01-.978-.793L12.567 2z" fill="currentColor"/><path d="M11 10.5h16a1 1 0 000-2H11a1 1 0 000 2zM4.74 49.85h34.762a4.745 4.745 0 014.74 4.75V59a1 1 0 01-1 1H1a1 1 0 01-1-1v-4.4c0-2.622 2.121-4.75 4.74-4.75zM42.24 54.6c0-1.519-1.227-2.75-2.739-2.75H4.74A2.744 2.744 0 002 54.6V58h40.241v-3.4z" fill="currentColor"/><path d="M34.887 43.384a4.745 4.745 0 014.739 4.75v2.716a1 1 0 01-1 1H5.616a1 1 0 01-1-1v-2.716a4.745 4.745 0 014.74-4.75h25.53zm2.739 4.75c0-1.519-1.227-2.75-2.74-2.75H9.357a2.745 2.745 0 00-2.74 2.75v1.716h31.01v-1.716z" fill="currentColor"/><path d="M31.775 26.831l.673 5.625a1 1 0 001.986-.237l-.673-5.625a1 1 0 10-1.986.237z" fill="#FABB05"/><path d="M10.479 43.384l3.33-27.718h16.623l.782 6.479a1 1 0 001.986-.24l-.888-7.36a1 1 0 00-.993-.88H12.922a1 1 0 00-.992.881l-3.571 29.72a1 1 0 00.993 1.118H34.89a1 1 0 00.993-1.12l-.888-7.359a1 1 0 00-1.986.24l.753 6.24H10.479z" fill="currentColor"/></g></svg>
