<svg viewBox="0 0 64 53" xmlns="http://www.w3.org/2000/svg"><g fill="none" fill-rule="evenodd"><path d="M42.98 11.196V7.39a1 1 0 011-1h9.31a1 1 0 011 1v19.93a1 1 0 01-1 1h-31.9a10.882 10.882 0 01-7.745-3.21 10.893 10.893 0 01-3.072-5.956 1 1 0 01.987-1.164h24.636l6.785-6.794zm2-2.806v3.22a1 1 0 01-.292.706l-7.37 7.38a1 1 0 01-.707.294H12.82a8.879 8.879 0 002.238 3.705 8.886 8.886 0 006.33 2.625h30.9V8.39h-7.308z" fill="currentColor"/><path d="M62.472 6.547A1 1 0 0164 7.396v19.92a1 1 0 01-1.528.849l-9.714-6.044a1 1 0 01-.472-.85V13.44a1 1 0 01.472-.85l9.714-6.043zM62 9.196l-7.714 4.8v6.72l7.714 4.8V9.196zM25.374 27.316a1 1 0 011-1h11.972a1 1 0 011 1 6.987 6.987 0 01-6.984 6.988 6.988 6.988 0 01-6.988-6.988zm2.15 1.218a4.988 4.988 0 009.722-.218h-9.772l.05.218zM20.938 39.072a4 4 0 110 8 4 4 0 010-8zm0 2a2 2 0 100 4 2 2 0 000-4zM2 51.695V34.478a1 1 0 00-2 0v17.217a1 1 0 002 0z" fill="currentColor"/><path d="M1 49.685a1 1 0 01-1-1V37.488a1 1 0 011-1 4.532 4.532 0 014.532 4.533v4.132A4.532 4.532 0 011 49.685zm1.156-2.279a2.531 2.531 0 001.376-2.253v-4.132c0-1.044-.63-1.94-1.532-2.328v8.787l.156-.074zM48.692 21.723h-2.86a1 1 0 000 2h2.86a1 1 0 000-2zM24.59 43.21l8.84-8.84a1 1 0 00-1.414-1.414l-8.84 8.84a1 1 0 001.414 1.415z" fill="currentColor"/><path d="M4.533 44.073h13.4a1 1 0 000-2h-13.4a1 1 0 000 2zM42.98 11.196l-6.784 6.793H9.83a1.76 1.76 0 01-1.76-1.769V3.77C8.07 2.79 8.854 2 9.83 2h7.69a1 1 0 000-2H9.83a3.76 3.76 0 00-3.76 3.77v12.45a3.76 3.76 0 003.76 3.77h26.78a1 1 0 00.707-.294l7.37-7.38a1 1 0 00.292-.707V1a1 1 0 00-1-1H33.52a1 1 0 000 2h9.46v9.196z" fill="currentColor"/><path d="M28.52 0h-6a1 1 0 000 2h6a1 1 0 000-2z" fill="#FABB05"/></g></svg>
