<svg viewBox="0 0 24 22" xmlns="http://www.w3.org/2000/svg">
<path d="M17.625 11c0 .628.504 1.138 1.125 1.138s1.125-.51 1.125-1.138c0-.628-.504-1.138-1.125-1.138s-1.125.51-1.125 1.138zm-1.875 1.138c.621 0 1.125-.51 1.125-1.138 0-.628-.504-1.138-1.125-1.138s-1.125.51-1.125 1.138c0 .628.504 1.138 1.125 1.138zM24 6.069V2.276C24 1.019 22.993 0 21.75 0H2.25C1.007 0 0 1.019 0 2.276v3.793c0 .583.217 1.115.573 1.517A2.282 2.282 0 000 9.103v3.794c0 .583.217 1.114.573 1.517A2.282 2.282 0 000 15.93v3.793C0 20.981 1.007 22 2.25 22h19.5c1.243 0 2.25-1.019 2.25-2.276v-3.793c0-.583-.217-1.115-.573-1.517.356-.403.573-.934.573-1.517V9.103c0-.583-.217-1.114-.573-1.517.356-.402.573-.934.573-1.517zm-22.5 0V2.276c0-.418.336-.759.75-.759h19.5c.414 0 .75.34.75.759v3.793a.755.755 0 01-.75.759H2.25a.755.755 0 01-.75-.759zm20.25 2.276c.414 0 .75.34.75.758v3.794a.755.755 0 01-.75.758H2.25a.755.755 0 01-.75-.758V9.103c0-.418.336-.758.75-.758h19.5zm.75 7.586v3.793a.755.755 0 01-.75.759H2.25a.755.755 0 01-.75-.759v-3.793c0-.418.336-.759.75-.759h19.5c.414 0 .75.34.75.759zm-3.75-10.62c.621 0 1.125-.51 1.125-1.139 0-.628-.504-1.138-1.125-1.138s-1.125.51-1.125 1.138c0 .629.504 1.138 1.125 1.138zm-3 0c.621 0 1.125-.51 1.125-1.139 0-.628-.504-1.138-1.125-1.138s-1.125.51-1.125 1.138c0 .629.504 1.138 1.125 1.138zm3 11.379c-.621 0-1.125.51-1.125 1.138 0 .628.504 1.138 1.125 1.138s1.125-.51 1.125-1.138c0-.629-.504-1.138-1.125-1.138zm-3 0c.621 0 1.125.51 1.125 1.138 0 .628-.504 1.138-1.125 1.138s-1.125-.51-1.125-1.138c0-.629.504-1.138 1.125-1.138z" fill="current" fill-rule="evenodd"/></svg>
