<svg viewBox="0 0 64 62" xmlns="http://www.w3.org/2000/svg"><g fill="none" fill-rule="evenodd"><path d="M33.52 38.757a56.471 56.471 0 003.854-10.963 1 1 0 10-1.944-.469c-.85 3.53-2.07 7.101-3.717 10.575a1 1 0 101.807.857z" fill="#FABB05"/><path d="M19.143 56.36c3.534-2.545 6.583-5.568 9.18-8.996a1 1 0 00-1.593-1.208c-2.48 3.274-5.388 6.156-8.756 8.58a1 1 0 001.169 1.624zM40.31 1.99a25.415 25.415 0 0116.584 9.805 25.137 25.137 0 014.519 20.58c-1.708 7.794-4.984 16.472-10.316 24.853a1 1 0 001.688 1.074c5.47-8.599 8.827-17.492 10.58-25.497a27.137 27.137 0 00-4.876-22.217A27.416 27.416 0 0040.599.01a1 1 0 10-.29 1.98zM1.446 36.295c5.269-2.623 8.673-7.364 10.3-14.252l.107-.473c2.11-9.5 9.27-16.805 18.541-19.098a1 1 0 00-.48-1.942C20.05 2.97 12.396 10.67 10.002 20.7l-.101.437C8.443 27.725 5.366 32.11.554 34.505a1 1 0 00.892 1.79z" fill="currentColor"/><path d="M54.98 30.97c-2.087 9.413-6.373 19.561-13.714 28.623a1 1 0 001.554 1.26c7.561-9.335 11.964-19.758 14.113-29.45a1 1 0 10-1.952-.434zM4.344 42.198c7.51-3.745 11.9-10.431 13.835-18.74l.105-.463c1.89-8.523 9.242-14.52 17.926-14.685h.946l.379.009.172.008c5.528.334 10.61 3.047 13.918 7.438a1 1 0 101.597-1.203c-3.661-4.86-9.284-7.863-15.4-8.232a13.758 13.758 0 00-.415-.016l-.83-.007c-9.657 0-17.915 6.528-20.162 15.895l-.084.361c-1.76 7.985-5.842 14.335-12.88 17.846a1 1 0 00.893 1.79z" fill="currentColor"/><path d="M37.311 14.911a12.17 12.17 0 019.069 4.827 12.029 12.029 0 012.17 9.829c-2.226 10.144-7.251 21.04-16.065 29.976a1 1 0 001.424 1.404c9.116-9.242 14.294-20.47 16.594-30.952a14.028 14.028 0 00-2.526-11.46 14.169 14.169 0 00-10.554-5.62 1 1 0 00-.112 1.996zM8.259 47.604c9.171-4.975 14.31-13.464 16.456-23.205.772-3.437 2.925-6.306 5.916-7.975a1 1 0 10-.974-1.746c-3.487 1.944-5.996 5.289-6.894 9.287-2.035 9.23-6.873 17.225-15.458 21.88a1 1 0 00.954 1.759z" fill="currentColor"/><path d="M36.196 43.718c-3.004 5.363-6.843 10.125-11.501 14.05a1 1 0 001.289 1.53c4.849-4.087 8.84-9.036 11.957-14.602a1 1 0 10-1.745-.978zM13.175 52.385c10.01-6.11 15.582-15.77 17.97-26.557a5.594 5.594 0 015.773-4.354l.194.014.18.018.078.012c3.25.464 5.428 3.52 4.748 6.622a56.557 56.557 0 01-1.992 6.924 1 1 0 101.883.673 58.555 58.555 0 002.063-7.169c.932-4.25-2.03-8.405-6.344-9.016l-.076-.015-.216-.028-.411-.032a7.594 7.594 0 00-7.832 5.916c-2.282 10.306-7.586 19.502-17.06 25.285a1 1 0 101.042 1.707z" fill="currentColor"/></g></svg>
