<svg viewBox="0 0 219 232" xmlns="http://www.w3.org/2000/svg"><g fill="none" fill-rule="evenodd"><path d="M28.909 116.593c0-47.235 36.079-85.526 80.587-85.526 44.507 0 80.586 38.291 80.586 85.526 0 27.252-12.009 51.525-30.717 67.187a59.18 59.18 0 01-.904-.903 98.58 98.58 0 01-7.856-9.078c12.65-13.203 20.612-33.05 20.612-57.206 0-46.766-27.633-75.045-61.721-75.045-34.088 0-61.722 28.282-61.722 75.045 0 51.519 27.634 75.046 61.722 75.046 10.63 0 20.632-2.922 29.364-8.308a97.89 97.89 0 005.531 4.424 69.996 69.996 0 004.82 3.274c-11.722 7.06-25.275 11.09-39.715 11.09-44.508 0-80.587-33.072-80.587-85.526" fill="currentColor"/><path d="M2.129 115.712c0-62.643 47.966-113.424 107.136-113.424 59.171 0 107.135 50.781 107.135 113.424 0 62.642-47.964 113.424-107.135 113.424-59.17 0-107.136-50.782-107.136-113.424z" stroke="currentColor" stroke-width="4"/><path d="M50.826 185.559a2.55 2.55 0 00-1.188.193c-.361.156-.817.499-1.367 1.03l-7.056 6.815c-.55.531-.907.972-1.072 1.324-.166.351-.24.742-.222 1.168l-2.889-2.991c.432.038.825-.021 1.18-.175.355-.156.808-.5 1.356-1.031l7.578-7.318c-.346-.485-.665-.91-.957-1.276a13.43 13.43 0 00-.794-.917 7.514 7.514 0 00-1.743-1.353 7.691 7.691 0 00-2.094-.785l2.875-1.305 6.393 6.621M42.796 176.718a2.524 2.524 0 00-1.204.004c-.381.097-.884.365-1.511.804l-8.035 5.627c-.626.438-1.048.818-1.267 1.139a2.469 2.469 0 00-.401 1.12l-2.385-3.407c.42.105.818.109 1.193.012.375-.1.875-.368 1.5-.805l8.629-6.043a28.81 28.81 0 00-.746-1.41c-.231-.407-.444-.75-.64-1.031a7.51 7.51 0 00-1.51-1.609 7.733 7.733 0 00-1.945-1.102l3.043-.838 5.279 7.539M32.624 159.688a9.531 9.531 0 01.934 3.183c.114 1.082.021 2.105-.278 3.068a7.55 7.55 0 01-1.528 2.732 7.9 7.9 0 01-2.517 1.926 7.815 7.815 0 01-2.402.727 8.027 8.027 0 01-2.521-.063 8.031 8.031 0 01-3.507-1.563c-1.03-.798-1.846-1.814-2.449-3.051-.516-1.059-.834-2.129-.952-3.209-.118-1.081-.027-2.103.273-3.066a7.315 7.315 0 011.531-2.75 8.244 8.244 0 012.617-1.969 7.34 7.34 0 013.093-.732 8.404 8.404 0 013.275.59c.967.37 1.826.91 2.578 1.621a8.765 8.765 0 011.853 2.556zm-12.861 6.17c.74 1.518 1.87 2.514 3.39 2.992 1.521.476 3.088.321 4.704-.468 1.668-.813 2.817-1.976 3.444-3.489.627-1.511.585-2.996-.127-4.455-.736-1.51-1.866-2.504-3.39-2.978-1.524-.477-3.096-.318-4.72.474-1.668.813-2.812 1.975-3.432 3.483-.621 1.51-.577 2.99.131 4.441zM23.872 145.782c.731-.223 1.252-.455 1.563-.694.311-.239.558-.555.744-.946l1.221 3.999a2.43 2.43 0 00-1.146-.374c-.391-.022-.951.08-1.682.303l-3.998 1.222-4.665 5.309c-.347.405-.652.82-.914 1.246a8.447 8.447 0 00-.673 1.365l-.98-3.207 5.161-5.701-4.887-1.279a4.598 4.598 0 00-.79-.139 1.537 1.537 0 00-.563.041.98.98 0 00-.45.302 2.095 2.095 0 00-.354.616l-1.032-3.375 9.49 2.522 3.955-1.21M24.682 139.507a2.38 2.38 0 00-1.056-.518c-.373-.072-.952-.047-1.736.076l-9.693 1.536c-.781.125-1.336.279-1.663.462a2.285 2.285 0 00-.824.815l-.827-5.219c-.222-1.401-.269-2.58-.141-3.537a7.6 7.6 0 01.936-2.746c.552-.979 1.257-1.762 2.115-2.348.857-.585 1.853-.967 2.989-1.147 1.028-.163 2.005-.15 2.934.038a7.311 7.311 0 012.615 1.096 6.98 6.98 0 012.349 2.617c.57 1.086.999 2.541 1.288 4.367l.714 4.508zm-2.327-2.937c0-.559-.011-1.04-.035-1.442a10.148 10.148 0 00-.102-1.033c-.264-1.668-1.044-2.955-2.341-3.862-1.297-.908-2.808-1.224-4.532-.951-1.769.28-3.105 1.045-4.008 2.293-.903 1.248-1.214 2.766-.93 4.556.058.366.142.736.252 1.11.112.372.251.744.42 1.115l11.276-1.786zM9.606 122.329c-.024.372-.141.672-.352.901a1.163 1.163 0 01-.829.371 1.417 1.417 0 01-1.02-.329 1.205 1.205 0 01-.457-.893 1.19 1.19 0 01.387-.97c.278-.262.654-.405 1.128-.43.458-.024.948.088 1.469.338.52.25 1.049.63 1.588 1.141l-.037.982a9.83 9.83 0 00-1.062-.74 4.37 4.37 0 00-.815-.371M21.937 117.02l-2.771.623c.619-.859 1.086-1.698 1.402-2.517a7.5 7.5 0 00.517-2.452c.036-1.04-.158-1.885-.583-2.533-.425-.648-.994-.985-1.706-1.01a1.999 1.999 0 00-.614.077 2.245 2.245 0 00-.588.264c-.425.262-1.05 1.169-1.877 2.72-.203.393-.363.698-.48.912-.794 1.451-1.513 2.44-2.158 2.967-.645.528-1.397.776-2.256.746-1.23-.043-2.189-.579-2.879-1.608-.689-1.029-1.003-2.416-.942-4.161.018-.502.07-1.053.156-1.655.087-.601.212-1.252.375-1.953l2.545.089a7.346 7.346 0 00-1.124 1.852 5.687 5.687 0 00-.419 1.964c-.03.866.131 1.57.484 2.111.352.54.828.821 1.424.842.532.019 1.008-.173 1.43-.573.422-.401 1-1.315 1.734-2.74.039-.079.102-.2.188-.365.602-1.201 1.15-2.095 1.644-2.682a3.653 3.653 0 011.313-1.007 3.526 3.526 0 011.616-.321c1.302.046 2.384.68 3.247 1.905.864 1.223 1.265 2.73 1.202 4.518a10.1 10.1 0 01-.25 1.847c-.146.658-.357 1.37-.63 2.14M22.109 94.185c.743.185 1.308.256 1.697.215a2.449 2.449 0 001.126-.433l-1.006 4.035a2.547 2.547 0 00-.792-.906c-.324-.223-.857-.427-1.598-.611l-9.526-2.376c-.739-.184-1.302-.253-1.687-.207a2.462 2.462 0 00-1.106.432l1.27-5.097c.364-1.454 1.001-2.541 1.916-3.262.914-.72 1.925-.943 3.034-.667a3.238 3.238 0 011.927 1.335c.481.689.813 1.655.997 2.899l6.048-2.548c.361-.151.749-.344 1.168-.578a17.75 17.75 0 001.331-.828l-.179 1.173-.045.18a3.29 3.29 0 01-.815 1.46c-.408.437-.904.77-1.486 1l-7.143 2.884c.036-1.382-.123-2.438-.476-3.169-.356-.732-.932-1.197-1.731-1.396-.742-.185-1.411-.076-2.008.328-.595.403-.999 1.026-1.209 1.868a6.523 6.523 0 00-.124.702c-.035.277-.063.593-.085.948l10.502 2.619M27.468 84.655a2.553 2.553 0 00-.66-1.008c-.289-.266-.788-.542-1.497-.829l-9.103-3.677c-.706-.286-1.253-.432-1.642-.439a2.443 2.443 0 00-1.154.274l3.115-7.712 2.199.888c-.41.236-.757.536-1.045.899-.288.363-.541.816-.759 1.357a8.028 8.028 0 00-.312.959c-.095.362-.186.777-.274 1.245l3.967 1.603 1.39-3.441 2.052.829c-.255.085-.477.25-.667.495-.189.246-.433.736-.73 1.472l-.511 1.265 5.042 2.037c.296-.501.553-.958.767-1.374.215-.415.388-.781.516-1.098.289-.716.465-1.43.527-2.142a7.946 7.946 0 00-.134-2.233l2.362 2.092-3.449 8.538M27.063 56.725a8.11 8.11 0 00-1.772 1.208 6.445 6.445 0 00-1.236 1.544c-.877 1.518-1.092 3.029-.644 4.531.447 1.503 1.482 2.721 3.102 3.656 1.688.976 3.307 1.261 4.856.857 1.548-.403 2.801-1.434 3.758-3.091.222-.385.42-.811.593-1.278.173-.467.318-.977.436-1.531l-2.768-1.598c-.662-.382-1.184-.606-1.566-.671a2.365 2.365 0 00-1.187.114l1.475-2.556 6.386 3.687a29.866 29.866 0 01-.929 2.621 17.74 17.74 0 01-1.024 2.113c-.527.913-1.093 1.685-1.696 2.316a8.104 8.104 0 01-1.973 1.527 7.256 7.256 0 01-3.726.918 7.76 7.76 0 01-3.778-1.066 7.747 7.747 0 01-2.436-2.189 8.244 8.244 0 01-1.358-3.054 7.9 7.9 0 01-.063-3.121c.184-1.049.572-2.084 1.162-3.105.263-.455.584-.935.966-1.442.38-.507.825-1.039 1.332-1.596l2.09 1.206M40.345 55.517c.61.459 1.102.746 1.476.86.374.114.777.127 1.206.041l-2.503 3.322a2.45 2.45 0 00-.372-1.148c-.213-.328-.624-.723-1.234-1.182l-7.835-5.905c-.61-.46-1.102-.746-1.473-.857a2.368 2.368 0 00-1.192-.032l2.503-3.321c.029.432.148.811.358 1.137.21.327.619.72 1.23 1.18l7.836 5.905M44.407 54.011l-2.475-1.39c1.035-.225 1.943-.536 2.726-.933a7.526 7.526 0 002.025-1.476c.722-.749 1.143-1.507 1.261-2.273.119-.766-.079-1.397-.591-1.892a2 2 0 00-.508-.354 2.261 2.261 0 00-.614-.197c-.491-.089-1.562.166-3.214.766a56.58 56.58 0 01-.967.356c-1.562.547-2.758.801-3.59.761-.832-.04-1.558-.358-2.176-.955-.885-.855-1.239-1.895-1.063-3.121.176-1.225.872-2.467 2.085-3.723.348-.361.757-.736 1.222-1.125.468-.389.996-.789 1.586-1.201l1.832 1.769a7.373 7.373 0 00-2.075.624 5.698 5.698 0 00-1.625 1.18c-.602.624-.953 1.254-1.053 1.892-.1.638.065 1.164.495 1.579.382.369.864.546 1.446.53.582-.016 1.623-.307 3.122-.875.082-.032.21-.081.384-.146 1.252-.489 2.256-.787 3.016-.893a3.677 3.677 0 011.65.13 3.529 3.529 0 011.415.844c.937.904 1.317 2.1 1.139 3.587-.177 1.488-.887 2.875-2.13 4.163-.399.413-.874.815-1.422 1.205-.548.39-1.182.779-1.901 1.168M56.405 39.454c.471.603.874 1.007 1.209 1.211a2.53 2.53 0 001.151.356l-3.278 2.56c.078-.43.058-.832-.063-1.205-.12-.372-.415-.86-.886-1.462l-6.661-8.525-.963.753c-.667.521-1.167.995-1.501 1.421-.334.426-.535.85-.603 1.272l-.933-2.421 8.55-6.678.94 2.357a1.984 1.984 0 00-1.066.081c-.367.127-.773.362-1.214.708l-1.342 1.048 6.66 8.524M63.246 37.706a2.54 2.54 0 00.079-1.201c-.07-.387-.303-.908-.697-1.564l-5.057-8.414c-.391-.653-.74-1.099-1.046-1.339a2.454 2.454 0 00-1.087-.476l7.129-4.283 1.221 2.031a3.63 3.63 0 00-1.375.09 5.471 5.471 0 00-1.423.626 8.157 8.157 0 00-.826.579c-.294.232-.617.508-.969.829l2.204 3.667 3.181-1.911 1.141 1.897a1.406 1.406 0 00-.831-.005c-.299.081-.789.326-1.469.735l-1.17.703 2.801 4.661a27.986 27.986 0 001.44-.635 13.06 13.06 0 001.072-.567 7.458 7.458 0 001.711-1.393 7.938 7.938 0 001.236-1.865l.628 3.092-7.893 4.743M75.827 27.976c.286.708.561 1.208.822 1.498.263.291.601.51 1.013.657l-3.855 1.558c.187-.39.276-.781.266-1.173-.01-.393-.157-.944-.443-1.652l-3.679-9.103c-.285-.707-.559-1.203-.823-1.487a2.453 2.453 0 00-1-.64l4.87-1.969c1.39-.561 2.645-.684 3.766-.367 1.12.316 1.894 1.003 2.322 2.062.31.769.328 1.55.054 2.343-.276.794-.863 1.631-1.76 2.512l5.617 3.394c.333.203.718.405 1.152.606.436.201.92.398 1.454.59l-1.055.543-.172.07a3.276 3.276 0 01-1.659.2 4.036 4.036 0 01-1.684-.615l-6.531-4.084c1.139-.782 1.9-1.532 2.283-2.249.384-.716.421-1.456.113-2.219-.287-.709-.768-1.186-1.446-1.432-.677-.245-1.417-.205-2.222.12a6.379 6.379 0 00-.641.312c-.244.134-.517.297-.817.489l4.055 10.036M102.922 24.434c-.294.062-.576.114-.847.156-.27.042-.532.074-.786.096a8.797 8.797 0 01-3.172-.293c-1.034-.289-1.939-.74-2.717-1.351a7.32 7.32 0 01-1.995-2.384 7.927 7.927 0 01-.904-3.061 7.795 7.795 0 01.182-2.504 7.951 7.951 0 01.963-2.331 8.038 8.038 0 012.714-2.715c1.115-.674 2.356-1.072 3.726-1.191a9.665 9.665 0 013.338.266c1.058.281 1.983.729 2.775 1.348a7.527 7.527 0 011.992 2.423c.497.951.794 1.999.895 3.144.125 1.43-.114 2.757-.719 3.983-.604 1.225-1.552 2.308-2.841 3.246 1.558 1.144 2.843 1.954 3.855 2.433 1.011.478 1.871.689 2.581.634a2.655 2.655 0 01-.931.862c-.37.2-.803.322-1.303.366-.709.062-1.519-.105-2.429-.501-.91-.397-2.369-1.272-4.377-2.626zm-2.625-13.981c-1.674.146-3.004.844-3.991 2.092-.986 1.248-1.401 2.768-1.244 4.559.162 1.849.834 3.337 2.017 4.465 1.184 1.128 2.579 1.621 4.189 1.48 1.674-.146 3.005-.846 3.996-2.097.989-1.252 1.405-2.778 1.248-4.576-.162-1.849-.836-3.334-2.022-4.454-1.186-1.12-2.584-1.61-4.193-1.469zM123.055 25.043l.14-1.146a8.907 8.907 0 01-2.365.906 6.911 6.911 0 01-2.322.109c-.882-.108-1.648-.348-2.298-.721a4.805 4.805 0 01-1.617-1.518 4.163 4.163 0 01-.646-1.689c-.095-.623-.081-1.444.044-2.462l.869-7.075c.094-.759.095-1.327.004-1.704a2.417 2.417 0 00-.567-1.049l4.129.508a2.399 2.399 0 00-.804.879c-.18.345-.316.896-.409 1.655l-.812 6.609c-.127 1.033-.17 1.805-.13 2.316.041.511.161.929.364 1.254.245.39.597.703 1.057.938.459.236 1.025.396 1.698.478.549.068 1.073.05 1.57-.054a3.813 3.813 0 001.345-.555c.35-.222.619-.531.807-.93.189-.398.327-.955.414-1.67l.921-7.498c.097-.787.102-1.364.015-1.73a2.306 2.306 0 00-.555-1.02l4.127.507a2.35 2.35 0 00-.803.902c-.183.366-.32.91-.409 1.633l-1.196 9.741c-.093.757-.094 1.326-.001 1.708.093.38.279.735.562 1.063l-3.132-.385M130.11 24.518a2.418 2.418 0 00-.49.874.95.95 0 00.002.506c.047.199.147.438.3.718l-3.401-1.106a3.018 3.018 0 001.021-.552c.335-.266.717-.655 1.143-1.168l7.401-8.967a3.55 3.55 0 00.372-.51c.103-.173.177-.332.224-.477a.95.95 0 00.029-.495 1.566 1.566 0 00-.255-.542l3.283 1.067.66 13.57c.037.617.122 1.136.256 1.559.134.422.341.859.622 1.31l-4.125-1.34.069-.035c.51-.278.797-.511.857-.698.072-.221.095-.574.068-1.057a2.308 2.308 0 00-.001-.173l-.152-3.735-5.381-1.749-2.502 3zm3.543-4.26l4.259 1.384-.236-6.233-4.023 4.849zM141.829 30.817a2.535 2.535 0 001.062-.569c.29-.265.608-.738.956-1.42l4.453-8.74c.346-.681.541-1.214.583-1.601a2.461 2.461 0 00-.171-1.177l3.705 1.888c-.42.104-.772.288-1.058.551-.285.263-.6.734-.947 1.414l-4.783 9.387c.485.346.926.644 1.32.895.396.25.746.453 1.051.609a7.484 7.484 0 002.088.712c.71.128 1.456.148 2.236.061l-2.295 2.168-8.2-4.178M156.479 36.014c-.426.633-.687 1.139-.781 1.519-.094.38-.087.782.022 1.206l-3.448-2.325c.434-.059.81-.202 1.127-.432.317-.229.689-.661 1.116-1.294l5.486-8.134c.428-.634.687-1.139.779-1.516a2.373 2.373 0 00-.031-1.192l3.448 2.326c-.43.052-.802.191-1.117.418-.315.226-.686.655-1.113 1.289l-5.488 8.135M164.232 41.971c-.49.586-.801 1.064-.932 1.434-.131.371-.167.77-.109 1.199l-3.185-2.673a2.453 2.453 0 001.166-.312c.339-.196.755-.586 1.246-1.171l6.953-8.287-.936-.787c-.649-.544-1.216-.934-1.703-1.172-.486-.238-.942-.347-1.369-.326l2.174-1.415 8.31 6.973-2.111 1.411c0-.351-.1-.692-.3-1.026-.201-.333-.515-.68-.945-1.041l-1.303-1.094-6.956 8.287M173.125 50.617c-.567.511-.942.941-1.123 1.29a2.514 2.514 0 00-.273 1.171l-2.799-3.107c.436.048.835 0 1.198-.146.362-.146.828-.475 1.395-.986l3.107-2.797 1.984-6.783a9.582 9.582 0 00.303-1.515 8.375 8.375 0 00.032-1.522l2.244 2.493-2.268 7.348 4.97-.907a4.64 4.64 0 00.775-.207c.215-.081.38-.173.493-.276a.963.963 0 00.279-.464c.057-.193.078-.428.062-.707l2.362 2.623-9.668 1.724-3.073 2.768M181.32 61.61a2.322 2.322 0 00-.484.11 2.565 2.565 0 00-.464.211.94.94 0 00-.337.377 2.98 2.98 0 00-.258.735l-1.788-3.098c.325.156.702.247 1.129.273.427.026.971-.008 1.63-.103l11.501-1.712c.22-.026.426-.07.618-.13s.353-.128.485-.205a.936.936 0 00.353-.348c.084-.146.142-.336.173-.573l1.726 2.989-8.589 10.527c-.386.482-.67.926-.854 1.329a5.93 5.93 0 00-.414 1.391l-2.168-3.757.074.02c.566.135.934.153 1.104.055.201-.116.454-.363.759-.74.051-.055.089-.098.114-.129l2.387-2.878-2.829-4.899-3.868.555zm5.485-.796l2.238 3.879 3.996-4.791-6.234.912zM186.256 74.231l2.277-1.697c-.216 1.037-.302 1.994-.257 2.871.045.877.22 1.693.526 2.449.389.966.911 1.658 1.563 2.078.652.42 1.308.496 1.969.229.188-.077.365-.184.529-.32.164-.138.308-.298.43-.481.281-.411.484-1.494.608-3.248.026-.442.048-.785.068-1.028.135-1.649.39-2.845.765-3.589.374-.744.96-1.277 1.758-1.599 1.141-.461 2.235-.361 3.283.298 1.048.66 1.899 1.8 2.553 3.419.189.465.365.99.53 1.575.165.584.317 1.23.453 1.936l-2.362.954a7.353 7.353 0 00.275-2.149 5.704 5.704 0 00-.417-1.964c-.325-.804-.758-1.381-1.301-1.732-.541-.35-1.089-.414-1.644-.19-.492.199-.849.567-1.072 1.105-.223.538-.379 1.608-.471 3.209-.003.087-.01.224-.022.409-.062 1.343-.198 2.382-.411 3.119a3.687 3.687 0 01-.789 1.455c-.372.42-.821.737-1.347.949-1.208.488-2.454.349-3.741-.418-1.286-.767-2.265-1.98-2.936-3.639a10.146 10.146 0 01-.522-1.79 18.028 18.028 0 01-.295-2.211M190.813 85.825l2.467-1.407c-.341 1.003-.542 1.942-.604 2.818a7.498 7.498 0 00.223 2.495c.269 1.006.702 1.757 1.298 2.252.596.496 1.238.652 1.927.468.196-.053.385-.137.564-.253.18-.117.342-.258.485-.425.33-.374.663-1.425 1-3.15.079-.435.143-.773.192-1.012.335-1.619.735-2.776 1.197-3.469.462-.692 1.109-1.15 1.939-1.373 1.188-.318 2.263-.086 3.223.696.96.783 1.666 2.018 2.118 3.705.13.485.241 1.027.334 1.628.093.6.164 1.259.212 1.977l-2.459.659a7.41 7.41 0 00.534-2.1c.06-.673.002-1.34-.175-2.001-.225-.837-.584-1.463-1.079-1.877-.495-.414-1.031-.544-1.608-.389-.514.138-.913.46-1.201.967-.285.507-.571 1.549-.857 3.127a19.09 19.09 0 01-.072.404c-.225 1.325-.488 2.34-.788 3.045a3.677 3.677 0 01-.961 1.347 3.54 3.54 0 01-1.452.779c-1.258.337-2.479.047-3.663-.871-1.183-.918-2.006-2.242-2.47-3.97a10.115 10.115 0 01-.301-1.84 18.297 18.297 0 01-.023-2.23M194.955 108.68l1.148-.121a8.888 8.888 0 01-1.415-2.101 6.903 6.903 0 01-.629-2.238c-.093-.883-.031-1.683.186-2.401a4.795 4.795 0 011.115-1.917 4.128 4.128 0 011.5-1.008c.587-.233 1.389-.404 2.41-.511l7.088-.745c.761-.081 1.315-.207 1.662-.38.348-.174.645-.436.894-.788l.435 4.136a2.405 2.405 0 00-1.038-.585c-.376-.097-.944-.106-1.705-.026l-6.622.696c-1.035.109-1.796.24-2.286.394-.488.154-.868.366-1.139.636-.326.327-.55.741-.677 1.241-.127.501-.155 1.088-.084 1.762.057.55.193 1.056.407 1.517.213.462.493.857.843 1.187.294.291.656.484 1.087.577.43.095 1.004.104 1.72.028l7.513-.789c.789-.083 1.353-.208 1.69-.375.338-.167.627-.424.869-.771l.434 4.136a2.34 2.34 0 00-1.059-.58c-.399-.096-.959-.107-1.684-.031l-9.76 1.026c-.758.079-1.313.207-1.665.383-.35.176-.653.438-.908.786l-.33-3.138M197.953 117.915c-.764-.027-1.331.019-1.703.143a2.43 2.43 0 00-1.012.656l.145-4.155c.28.329.601.57.964.721.362.15.925.239 1.688.266l9.813.343c.761.026 1.326-.023 1.693-.149a2.45 2.45 0 00.992-.653l-.183 5.251c-.052 1.497-.451 2.694-1.196 3.589-.744.894-1.687 1.322-2.828 1.283a3.24 3.24 0 01-2.163-.904c-.613-.575-1.14-1.452-1.579-2.629l-5.385 3.75c-.321.222-.662.492-1.022.806-.361.317-.738.678-1.13 1.088l-.068-1.183.006-.187a3.28 3.28 0 01.494-1.597 4.003 4.003 0 011.246-1.287l6.386-4.306c.252 1.359.627 2.359 1.126 3.001.499.641 1.159.977 1.982 1.005.764.027 1.396-.219 1.896-.739.499-.518.764-1.211.794-2.078a6.183 6.183 0 00-.024-.713 14.386 14.386 0 00-.114-.945l-10.818-.377M196.531 131.354a2.498 2.498 0 00-.438-.236 2.708 2.708 0 00-.489-.144c-.144-.028-.311-.006-.502.063a2.91 2.91 0 00-.676.386l.682-3.512c.143.332.368.648.672.947.306.301.739.631 1.298.993l9.804 6.252c.183.124.366.227.551.307.184.08.351.136.501.164a.932.932 0 00.495-.032c.159-.054.328-.16.507-.318l-.66 3.388-13.387 2.31c-.609.11-1.114.259-1.517.443a5.866 5.866 0 00-1.225.778l.828-4.258.044.064c.337.474.603.728.796.766.229.044.581.024 1.058-.062.076-.008.133-.014.171-.021l3.689-.608 1.08-5.552-3.282-2.118zm4.659 2.997l-.854 4.396 6.158-.994-5.304-3.402zM201.313 163.068a2.36 2.36 0 00-.693-.97c-.3-.246-.81-.494-1.533-.742l-12.153-4.185c.185-.498.512-.92.978-1.264.466-.345 1.252-.708 2.357-1.092l11.875-4.183-8.709-2.998c-.75-.258-1.315-.384-1.695-.376-.38.007-.756.116-1.128.326l1.121-3.255c.171.397.409.721.71.971.303.25.816.5 1.537.748l9.278 3.194c.722.249 1.278.367 1.667.355a2.456 2.456 0 001.141-.333l-1.002 2.91-13.684 4.778 8.245 2.84c.723.248 1.278.367 1.667.354a2.472 2.472 0 001.143-.333l-1.122 3.255M182.416 171.524l-1.827-2.318c.142-.736.314-1.407.515-2.011a10.07 10.07 0 01.715-1.651 9.408 9.408 0 011.483-1.998 8.886 8.886 0 011.951-1.514 7.075 7.075 0 013.721-.971c1.339.018 2.629.372 3.87 1.059a7.407 7.407 0 012.379 2.106 8.285 8.285 0 011.391 3.005 7.991 7.991 0 01.129 3.09 9.022 9.022 0 01-1.053 3.037 10.13 10.13 0 01-.941 1.393c-.37.465-.807.941-1.31 1.428l-2.133-1.183c.65-.423 1.202-.858 1.651-1.308a6.51 6.51 0 001.098-1.438c.822-1.483 1.022-2.927.601-4.329-.42-1.403-1.388-2.524-2.903-3.363-1.661-.921-3.26-1.202-4.795-.84-1.536.36-2.722 1.295-3.559 2.805-.342.619-.594 1.338-.756 2.161-.162.823-.238 1.769-.227 2.84M178.956 171.19c.04.431.165.813.376 1.144.211.332.621.727 1.231 1.188l7.841 5.909c.609.458 1.099.74 1.472.848.372.109.769.12 1.187.034l-5.006 6.643-1.893-1.426a3.654 3.654 0 001.241-.599 5.467 5.467 0 001.084-1.114c.18-.238.364-.519.55-.845.186-.327.382-.704.587-1.132l-3.416-2.575-2.234 2.963-1.768-1.332a1.4 1.4 0 00.772-.305c.248-.188.61-.599 1.087-1.233l.821-1.09-4.343-3.272c-.416.407-.782.782-1.098 1.128-.315.346-.575.654-.781.928a7.42 7.42 0 00-1.063 1.933 7.915 7.915 0 00-.449 2.191l-1.74-2.632 5.542-7.354M66.65 210.278c-.381.662-.606 1.186-.673 1.571-.068.384-.032.786.106 1.201l-3.602-2.079a2.452 2.452 0 001.094-.509c.3-.251.641-.707 1.024-1.369l4.905-8.496c.382-.663.605-1.184.671-1.567a2.376 2.376 0 00-.114-1.187l3.601 2.08a2.362 2.362 0 00-1.085.494c-.299.248-.639.702-1.02 1.364l-4.907 8.497M69.878 214.595l.361-2.817c.596.876 1.225 1.603 1.887 2.18a7.526 7.526 0 002.127 1.323c.965.39 1.825.496 2.58.319.754-.177 1.266-.597 1.532-1.257.076-.19.122-.391.138-.604.016-.213 0-.428-.047-.642-.101-.489-.739-1.387-1.914-2.695a47.475 47.475 0 01-.693-.762c-1.092-1.243-1.775-2.257-2.05-3.043-.275-.788-.251-1.579.07-2.375.461-1.141 1.293-1.86 2.496-2.156 1.202-.296 2.614-.116 4.233.538.465.188.965.426 1.502.713a23.45 23.45 0 011.706 1.02l-.953 2.361a7.361 7.361 0 00-1.357-1.689 5.656 5.656 0 00-1.702-1.065c-.804-.326-1.52-.414-2.148-.267-.629.145-1.056.496-1.28 1.049-.199.494-.181 1.005.051 1.54.232.534.893 1.389 1.981 2.567.06.063.153.164.279.301.923.976 1.575 1.798 1.958 2.462.287.493.453 1.018.497 1.579a3.526 3.526 0 01-.252 1.627c-.487 1.209-1.454 2.007-2.9 2.4-1.445.394-2.998.255-4.657-.415a10.257 10.257 0 01-1.65-.867 18.07 18.07 0 01-1.795-1.325M90.186 222.108a9.497 9.497 0 01-3.082-1.224c-.923-.576-1.672-1.279-2.248-2.108a7.557 7.557 0 01-1.21-2.885 7.868 7.868 0 01.031-3.169 7.82 7.82 0 01.905-2.342 7.99 7.99 0 011.603-1.947 8.027 8.027 0 013.39-1.802c1.262-.32 2.566-.337 3.911-.051 1.154.245 2.192.653 3.116 1.226a7.52 7.52 0 012.248 2.101 7.328 7.328 0 011.225 2.901 8.269 8.269 0 01-.059 3.275 7.36 7.36 0 01-1.329 2.887 8.43 8.43 0 01-2.48 2.218 7.806 7.806 0 01-2.864 1.034 8.786 8.786 0 01-3.157-.114zm3.056-13.933c-1.65-.352-3.133-.074-4.444.83-1.312.904-2.154 2.235-2.528 3.994-.386 1.815-.176 3.435.629 4.861.805 1.424 2.001 2.307 3.588 2.643 1.645.349 3.123.07 4.436-.838 1.312-.907 2.156-2.244 2.531-4.01.387-1.816.176-3.432-.632-4.85-.806-1.418-2-2.295-3.58-2.63zM109.688 216.538l-1.24 1.617a9.11 9.11 0 01-1.229.295 6.357 6.357 0 01-1.15.089c-1.34-.023-2.421-.48-3.239-1.366-.819-.889-1.217-2.031-1.192-3.428.028-1.571.578-2.86 1.652-3.867 1.074-1.008 2.419-1.498 4.036-1.47a5.964 5.964 0 012.434.545 5.651 5.651 0 011.935 1.474c.522.621.914 1.31 1.178 2.067.264.759.388 1.548.373 2.37-.019 1.113-.299 2.216-.839 3.309a8.907 8.907 0 01-2.218 2.847c-.821.714-1.82 1.306-2.998 1.777-1.176.47-2.565.837-4.165 1.1l.898-1.236c2.247-.674 3.956-1.67 5.126-2.988 1.169-1.319 1.771-2.926 1.804-4.824.026-1.448-.309-2.618-1.003-3.51-.696-.893-1.621-1.35-2.778-1.369-.954-.018-1.735.289-2.343.919-.608.629-.921 1.452-.938 2.47-.02 1.075.282 1.972.902 2.689.621.717 1.416 1.083 2.385 1.099.327.006.697-.039 1.11-.132a11.56 11.56 0 001.499-.477M122.158 221.286c1.054-.129 1.825-.725 2.314-1.785.489-1.061.628-2.455.416-4.182-.238-1.927-.768-3.429-1.592-4.504-.824-1.076-1.789-1.547-2.894-1.41-1.061.129-1.839.726-2.336 1.787-.496 1.063-.637 2.456-.425 4.182.235 1.922.767 3.422 1.596 4.5.828 1.078 1.802 1.55 2.921 1.412zm.004 1.914c-1.697.209-3.191-.35-4.483-1.676-1.292-1.326-2.079-3.138-2.362-5.434-.278-2.268.06-4.196 1.012-5.782.952-1.587 2.295-2.487 4.028-2.7 1.705-.209 3.206.352 4.501 1.685 1.297 1.333 2.086 3.147 2.369 5.444.276 2.254-.066 4.174-1.025 5.762-.96 1.588-2.306 2.488-4.04 2.701zM136.341 218.181c1.02-.293 1.689-1 2.007-2.125.316-1.124.235-2.522-.244-4.194-.536-1.868-1.294-3.268-2.277-4.201-.983-.934-2.009-1.247-3.079-.939-1.027.294-1.703 1.004-2.027 2.13-.324 1.126-.245 2.526.234 4.198.533 1.86 1.294 3.258 2.28 4.193.988.936 2.023 1.248 3.106.938zm.305 1.89c-1.644.471-3.208.154-4.692-.955-1.483-1.107-2.544-2.773-3.182-4.997-.629-2.196-.598-4.153.095-5.869.693-1.716 1.878-2.816 3.556-3.296 1.651-.475 3.221-.154 4.71.959 1.489 1.114 2.553 2.783 3.19 5.008.625 2.181.588 4.133-.111 5.85-.699 1.719-1.889 2.818-3.566 3.3zM148.285 215.333c.244-.524.377-.985.4-1.385.021-.4-.086-.854-.324-1.363l-.208-.445-3.827-8.209a22.793 22.793 0 01-1.88.625 13.445 13.445 0 001.585-2.482 9.75 9.75 0 00.846-2.569l5.623 12.058c.228.489.488.868.782 1.137.295.268.673.504 1.137.705l-4.134 1.928M68.75 71.902v2.777h2.027c1.543 0 11.213 2.458 11.213 9.212v63.845c0 3.261-4.109 9.433-10.106 9.433H68.75v2.578h71.982l9.756-23.19-2.037-.816s-9.01 17.643-34.179 17.643c-13.767 0-16.172-8.227-16.092-10.963.08-2.737 0-70.519 0-70.519H68.75" fill="currentColor"/><path d="M100.505 71.901l15.863.001c12.694 0 23.429 8.089 23.429 22.016 0 18.999-19.849 22.675-19.849 22.675s3.972 2.091 5.651 4.23c5.675 7.233 10.605 24.693 10.605 24.693s-1.842 1.844-6.224 3.276c-4.381 1.434-8.354 1.925-8.354 1.925s-5.322-13.31-6.47-16.462c-1.146-3.154-3.401-11.914-6.715-14.579-3.835-3.083-7.936-3.083-7.936-3.083v-2.543s23.433 1.08 23.433-20.347c0-19.448-23.433-19.024-23.433-19.024v-2.778M127.07 161.634h15.01s3.052 11.023 13.532 21.736c10.136 10.361 23.604 10.83 23.604 10.83v2.096s-17.898.816-32.337-9.899c-14.441-10.713-19.809-24.763-19.809-24.763" fill="currentColor"/></g></svg>
