<svg viewBox="0 0 54 53" xmlns="http://www.w3.org/2000/svg" xmlns:xlink="http://www.w3.org/1999/xlink"><defs><path id="a" d="M0 .843h53.752V54H0z"/></defs><g fill="none" fill-rule="evenodd"><g transform="translate(0 -1)"><mask id="b" fill="#fff"><use xlink:href="#a"/></mask><path d="M27.469 27.847a1.175 1.175 0 00-1.483 0l-3.39 2.762-9.436-5.867V11.13a3.091 3.091 0 013.087-3.087h22.305a3.091 3.091 0 013.087 3.087v12.9l-10.686 6.644-3.484-2.828zm-16.657-4.564L3.346 18.64l7.466-4.629v9.27zm15.982-19.18a.777.777 0 00.075-.053l.07.004h.002l2.648 1.642h-5.365l2.57-1.594zm23.593 14.489l-6.4 3.98v-7.948l6.4 3.968zm3.338 2.943l.009-2.974a1.173 1.173 0 00-.556-1.001l-9.191-5.697v-.732a5.441 5.441 0 00-5.435-5.435h-4.508L28.226 2.09c-.229-.166-.666-.39-1.355-.39-.698 0-1.154.262-1.395.457l-5.706 3.54h-3.523a5.441 5.441 0 00-5.435 5.434v.119L.556 17.61a1.172 1.172 0 00-.556 1L.026 27.2l2.348-.007-.013-4.294c-.003-.822-.004-1.518-.01-2.111l18.319 11.39-10.034 8.172-.366.24a1.173 1.173 0 00-.337 1.627 1.17 1.17 0 001.625.336l.418-.273a.975.975 0 00.096-.072l14.655-11.936 14.83 12.088.438.29a1.172 1.172 0 001.627-.331c.358-.54.21-1.268-.33-1.627l-10.41-8.45 18.5-11.503c-.005.592-.008 1.289-.01 2.11l-.013 4.294h.045v23.533a1.836 1.836 0 01-1.834 1.835H4.21a1.837 1.837 0 01-1.835-1.835V45.15a1.174 1.174 0 00-2.348 0v5.525a4.187 4.187 0 004.183 4.182H49.57a4.187 4.187 0 004.182-4.182V21.67c0-.048-.022-.09-.027-.136z" fill="currentColor" mask="url(#b)"/></g><path d="M1.5 39c.828 0 1.5-.503 1.5-1.125v-6.75C3 30.503 2.328 30 1.5 30S0 30.503 0 31.125v6.75C0 38.497.672 39 1.5 39" fill="#FABB05"/><path d="M36.859 13.116l-19.702-.114c-.664-.035-1.152.414-1.157.935-.005.52.506.945 1.141.949L36.843 15h.008c.63 0 1.144-.417 1.149-.935.005-.52-.506-.945-1.141-.95M36.859 18.114L17.157 18h-.008c-.632 0-1.144.418-1.149.936-.005.52.506.946 1.141.95L36.843 20h.008c.63 0 1.144-.418 1.149-.936.005-.52-.506-.946-1.141-.95" fill="currentColor"/></g></svg>
