<svg viewBox="0 0 60 64" xmlns="http://www.w3.org/2000/svg"><g fill="none" fill-rule="evenodd"><path d="M29.9 15.6c10.238 0 20.124 5.458 27.661 15.62-5.598 7.542-12.489 12.517-19.927 14.566a1 1 0 00.532 1.928c8.086-2.227 15.516-7.684 21.445-15.91a1 1 0 000-1.168C51.663 19.599 41.007 13.6 29.9 13.6S8.137 19.6.189 30.636a1 1 0 000 1.169c5.93 8.225 13.359 13.682 21.445 15.91a1 1 0 00.532-1.93c-7.276-2.003-14.03-6.809-19.56-14.077l-.367-.488C9.776 21.058 19.662 15.6 29.9 15.6z" fill="currentColor"/><path d="M32.796 46.686a27.65 27.65 0 01-5.792 0 1 1 0 00-.208 1.989c2.069.217 4.139.217 6.208 0a1 1 0 00-.208-1.99z" fill="#FABB05"/><path d="M29.9 19.25c6.613 0 11.974 5.36 11.974 11.973 0 6.614-5.36 11.975-11.974 11.975-6.613 0-11.974-5.361-11.974-11.975 0-6.613 5.36-11.974 11.974-11.974zm0 2c-5.509 0-9.974 4.464-9.974 9.973s4.466 9.975 9.974 9.975c5.509 0 9.974-4.466 9.974-9.975 0-5.509-4.465-9.974-9.974-9.974z" fill="currentColor"/><path d="M29.9 26.789a4.435 4.435 0 11-4.435 4.435 1 1 0 00-2 0 6.435 6.435 0 106.435-6.435 1 1 0 000 2zM7.844 12.407L5.658 9.379a1 1 0 10-1.621 1.17l2.186 3.029a1 1 0 101.621-1.171z" fill="currentColor"/><path d="M7.844 12.407L5.658 9.379a1 1 0 10-1.621 1.17l2.186 3.029a1 1 0 101.621-1.171zM19.407 9.625l-2.08-5.762a1 1 0 00-1.88.679l2.08 5.762a1 1 0 001.88-.68zM30.9 6.936V1a1 1 0 00-2 0v5.936a1 1 0 002 0zM42.274 10.304l2.08-5.762a1 1 0 00-1.881-.68l-2.08 5.763a1 1 0 001.88.679zM53.577 13.578l2.186-3.028a1 1 0 10-1.621-1.171l-2.186 3.028a1 1 0 101.621 1.17zM51.956 51.593l2.186 3.028a1 1 0 101.621-1.17l-2.186-3.029a1 1 0 10-1.621 1.171z" fill="currentColor"/><path d="M51.956 51.593l2.186 3.028a1 1 0 101.621-1.17l-2.186-3.029a1 1 0 10-1.621 1.171zM40.393 54.375l2.08 5.762a1 1 0 001.88-.679l-2.08-5.762a1 1 0 00-1.88.68zM28.9 57.063v5.938a1 1 0 002 0v-5.938a1 1 0 00-2 0zM17.526 53.696l-2.08 5.762a1 1 0 001.881.68l2.08-5.763a1 1 0 00-1.88-.679zM6.223 50.422L4.037 53.45a1 1 0 101.621 1.171l2.186-3.028a1 1 0 10-1.621-1.17z" fill="currentColor"/></g></svg>
