<svg viewBox="0 0 44 64" xmlns="http://www.w3.org/2000/svg"><g fill="none" fill-rule="evenodd"><path d="M42.85 36a1 1 0 01-1-1v-6a1 1 0 112 0v6a1 1 0 01-1 1" fill="#FABB05"/><path d="M38.85 56H5a1 1 0 110-2h33.85a1 1 0 110 2M15.756 5.997h-1.833a1 1 0 110-2h1.833a1 1 0 110 2" fill="currentColor"/><path d="M38.85 64H5c-2.757 0-5-2.243-5-5V5c0-2.757 2.243-5 5-5h33.85c2.757 0 5 2.243 5 5v19a1 1 0 11-2 0V5c0-1.654-1.346-3-3-3H5C3.346 2 2 3.346 2 5v54c0 1.654 1.346 3 3 3h33.85c1.654 0 3-1.346 3-3V40a1 1 0 112 0v19c0 2.757-2.243 5-5 5" fill="currentColor"/><path d="M42.85 10H7a1 1 0 110-2h35.85a1 1 0 110 2M29.922 5.997H21.09a1 1 0 110-2h8.833a1 1 0 110 2M23.839 59.997h-3.833a1 1 0 110-2h3.833a1 1 0 110 2M8.666 25.024a5.118 5.118 0 001.511 3.564l11.938 11.973a.978.978 0 101.389-1.377L11.566 27.212a3.162 3.162 0 01-.948-2.208 3.074 3.074 0 01.893-2.206l2.628-2.62 3.801 3.725-1.374 3.991a.98.98 0 00.234 1.015l7.56 7.41a.973.973 0 001.019.212l3.962-1.453 3.801 3.724-2.567 2.681-.01.01a3.082 3.082 0 01-4.393.034.977.977 0 00-1.382.015.976.976 0 00.013 1.382 5.082 5.082 0 007.17-.072l.009-.01 3.241-3.389a.977.977 0 00-.024-1.373l-4.93-4.832a.977.977 0 00-1.02-.214l-3.961 1.454-6.677-6.544 1.373-3.99a.974.974 0 00-.234-1.015l-4.93-4.832a.977.977 0 00-1.373.003l-3.323 3.31-.01.01a5.064 5.064 0 00-1.448 3.594" fill="currentColor"/></g></svg>
