<svg viewBox="0 0 22 23" xmlns="http://www.w3.org/2000/svg"><path d="M21.85 20.898l-5.217-5.216a.51.51 0 00-.365-.15H15.7a8.913 8.913 0 002.174-5.844c0-4.938-4-8.938-8.938-8.938C4 .75 0 4.75 0 9.688c0 4.937 4 8.937 8.937 8.937 2.235 0 4.276-.82 5.844-2.174v.567c0 .137.056.266.15.365l5.217 5.217a.516.516 0 00.73 0l.972-.971a.516.516 0 000-.73zM8.937 16.563a6.873 6.873 0 01-6.875-6.875 6.873 6.873 0 016.875-6.875 6.873 6.873 0 016.875 6.875 6.873 6.873 0 01-6.875 6.875z" fill="currentColor" fill-rule="evenodd"/></svg>
