<svg viewBox="0 0 65 62" xmlns="http://www.w3.org/2000/svg"><g fill-rule="nonzero" fill="none"><path d="M55.427 45.017h1.743c.92 0 1.674.652 1.674 1.451v12.053c0 .803-.757 1.462-1.674 1.462H5.001c-.916 0-1.673-.66-1.673-1.462V46.468c0-.8.753-1.451 1.673-1.451h30.665c.642 0 1.162-.452 1.162-1.009 0-.556-.52-1.008-1.162-1.008H5c-2.202 0-3.998 1.553-3.998 3.468v12.053C1.003 60.436 2.8 62 5 62h52.17c2.201 0 3.998-1.564 3.998-3.48V46.469c0-1.915-1.796-3.468-3.999-3.468h-1.743c-.642 0-1.163.452-1.163 1.008 0 .557.52 1.009 1.163 1.009z" fill="currentColor"/><path d="M50.968 55.214v-5.16a1.001 1.001 0 00-2.006 0v5.16c0 .552.45 1 1.004 1 .553 0 1.002-.448 1.002-1zM46.542 55.214v-5.16c0-.552-.449-1-1.003-1-.554 0-1.002.448-1.002 1v5.16a1.001 1.001 0 002.006 0zM42.116 55.214v-5.16a1.001 1.001 0 00-2.006 0v5.16c0 .552.45 1 1.004 1 .553 0 1.002-.448 1.002-1z" fill="currentColor"/><path d="M40.937 45.216h8.58c.676 0 1.225-.448 1.225-1s-.549-1-1.225-1h-8.58c-.677 0-1.225.448-1.225 1s.548 1 1.225 1z" fill="#FABB05"/><path d="M13.14 49.2l.197.054a3.549 3.549 0 012.392 2.53c.638 2.631-1.698 4.96-4.336 4.325a3.547 3.547 0 01-2.591-2.584c-.636-2.631 1.698-4.959 4.337-4.325zm-.601 1.918a1.566 1.566 0 00-1.787 1.939c.128.53.578.98 1.111 1.108a1.569 1.569 0 001.917-1.913 1.55 1.55 0 00-.98-1.07l-.13-.038-.131-.026zM22.456 49.2l.198.054a3.549 3.549 0 012.392 2.53c.637 2.631-1.697 4.96-4.336 4.325a3.547 3.547 0 01-2.591-2.584c-.636-2.631 1.698-4.96 4.337-4.325zm-.6 1.918a1.567 1.567 0 00-1.788 1.939c.129.53.58.98 1.112 1.108a1.568 1.568 0 001.916-1.913 1.55 1.55 0 00-.979-1.07l-.13-.038-.131-.026zM32.64 27.114a3.62 3.62 0 012.66 2.803 3.621 3.621 0 01-7.105 1.393 3.616 3.616 0 014.075-4.268l.176.03.193.042zm-.567 1.923l-.137-.02a1.613 1.613 0 00-1.77 1.92 1.618 1.618 0 001.256 1.255 1.616 1.616 0 001.908-1.902 1.615 1.615 0 00-1.257-1.253z" fill="currentColor"/><path d="M55.965 29.607l-21.601.007c-.554 0-1.003.448-1.003 1s.45 1 1.003 1l21.602-.007c.554 0 1.002-.448 1.002-1 0-.553-.449-1-1.003-1zM30.746 33.724v8.996c0 .83.448 1.502 1.002 1.502s1.003-.673 1.003-1.502v-8.996c0-.83-.449-1.502-1.003-1.502-.554 0-1.002.672-1.002 1.502z" fill="currentColor"/><path d="M59.65 13.697c-.443-4.835-4.349-8.797-9.199-9.341a10.522 10.522 0 00-6.291 1.273A12.573 12.573 0 0033.663.001a12.574 12.574 0 00-11.332 7.108c-2.364-2.23-5.696-3.259-9.115-2.632-4.848.893-8.421 5.239-8.433 10.191 0 .792.085 1.563.254 2.306a7.675 7.675 0 00-2.834 1.776 7.504 7.504 0 00-2.11 6.493C.61 28.74 4.134 31.6 7.771 31.6l.383.013h20.978c.553 0 1.002-.447 1.002-1 0-.552-.449-1-1.002-1H8.189l-.384-.013c-2.7 0-5.36-2.158-5.73-4.656a5.508 5.508 0 011.545-4.779 5.602 5.602 0 012.848-1.513 1 1 0 00.757-1.31 8.1 8.1 0 01-.436-2.671c.009-3.995 2.9-7.51 6.79-8.227 3.256-.597 6.39.644 8.286 3.13.49.643 1.502.472 1.752-.296a10.563 10.563 0 0110.046-7.277c3.914 0 7.434 2.128 9.29 5.5.287.524.97.68 1.458.334 1.66-1.174 3.706-1.716 5.822-1.491 3.9.438 7.063 3.646 7.42 7.538a8.42 8.42 0 01-.421 3.536 1 1 0 00.714 1.295 5.512 5.512 0 014.226 5.357 5.455 5.455 0 01-1.619 3.9c-.93.936-2.93 1.637-4.587 1.637-.554 0-1.003.447-1.003 1 0 .552.449 1 1.003 1 2.158 0 4.673-.882 6.006-2.224a7.446 7.446 0 002.205-5.313 7.51 7.51 0 00-4.509-6.882l-.254-.105c.262-1.1.344-2.237.237-3.386z" fill="currentColor"/></g></svg>
