<svg viewBox="0 0 50 64" xmlns="http://www.w3.org/2000/svg"><g fill-rule="nonzero" fill="none"><path d="M4.94 50.79h-1.5c-.792 0-1.44-.646-1.44-1.44V39.4c0-.797.651-1.45 1.44-1.45h42.88c.788 0 1.44.653 1.44 1.45v9.95c0 .794-.648 1.44-1.44 1.44H20.94a1 1 0 000 2h25.38c1.895 0 3.44-1.54 3.44-3.44V39.4c0-1.9-1.546-3.45-3.44-3.45H3.44A3.452 3.452 0 000 39.4v9.95c0 1.9 1.545 3.44 3.44 3.44h1.5a1 1 0 000-2z" fill="currentColor"/><path d="M4.891 41.792v5.16a1 1 0 002 0v-5.16a1 1 0 00-2 0zM9.305 41.792v5.16a1 1 0 002 0v-5.16a1 1 0 00-2 0zM13.719 41.792v5.16a1 1 0 002 0v-5.16a1 1 0 00-2 0z" fill="currentColor"/><path d="M15.94 50.79h-6a1 1 0 000 2h6a1 1 0 000-2z" fill="#FABB05"/><path d="M42.18 40.896l.198.054a3.547 3.547 0 012.386 2.53 3.566 3.566 0 01-4.325 4.325 3.54 3.54 0 01-2.583-2.583 3.566 3.566 0 014.325-4.326zm-.598 1.918a1.564 1.564 0 00-1.781 1.94c.127.53.576.98 1.106 1.107a1.567 1.567 0 001.913-1.912 1.55 1.55 0 00-.977-1.07l-.131-.038-.13-.027zM32.89 40.896l.197.054a3.547 3.547 0 012.386 2.53 3.567 3.567 0 01-4.325 4.325 3.54 3.54 0 01-2.583-2.583 3.566 3.566 0 014.325-4.326zm-.6 1.918a1.564 1.564 0 00-1.78 1.94c.127.53.576.98 1.107 1.107a1.567 1.567 0 001.912-1.912 1.55 1.55 0 00-.977-1.07l-.131-.038-.13-.027zM25.775 25.506c1.959-1.193 3.637-2.557 5.053-4.078l.297-.318H46.32c1.895 0 3.44 1.55 3.44 3.45v9.95c0 1.9-1.545 3.44-3.44 3.44H3.44A3.443 3.443 0 010 34.51v-9.95c0-1.9 1.546-3.45 3.44-3.45h16.005l.297.318c1.422 1.527 3.094 2.89 5.045 4.079l.493.293.495-.294zM3.44 23.11c-.789 0-1.44.653-1.44 1.45v9.95c0 .794.648 1.44 1.44 1.44h42.88c.792 0 1.44-.646 1.44-1.44v-9.95c0-.797-.651-1.45-1.44-1.45H31.99c-1.732 1.791-3.801 3.371-6.225 4.715l-.485.268-.485-.268c-2.231-1.237-4.158-2.676-5.808-4.304l-.407-.41H3.44z" fill="currentColor"/><path d="M4.891 26.95v5.16a1 1 0 002 0v-5.16a1 1 0 00-2 0zM9.305 26.95v5.16a1 1 0 002 0v-5.16a1 1 0 00-2 0zM13.719 26.95v5.16a1 1 0 002 0v-5.16a1 1 0 00-2 0zM42.18 26.055l.198.054a3.547 3.547 0 012.386 2.53 3.566 3.566 0 01-4.325 4.325 3.542 3.542 0 01-2.583-2.583 3.566 3.566 0 014.325-4.326zm-.598 1.918a1.564 1.564 0 00-1.781 1.94c.127.529.577.979 1.106 1.107a1.567 1.567 0 001.913-1.913 1.55 1.55 0 00-.977-1.07L41.712 28l-.13-.026zM32.89 26.055l.197.054a3.547 3.547 0 012.386 2.53 3.567 3.567 0 01-4.325 4.325 3.542 3.542 0 01-2.583-2.583 3.566 3.566 0 014.325-4.326zm-.6 1.918a1.564 1.564 0 00-1.78 1.94c.127.529.577.979 1.107 1.107a1.567 1.567 0 001.912-1.913 1.55 1.55 0 00-.977-1.07L32.42 28l-.13-.026zM25.77 56.892a3.613 3.613 0 012.654 2.803 3.612 3.612 0 01-4.24 4.239 3.61 3.61 0 011.218-7.113l.176.029.193.042zm-.563 1.923l-.137-.02a1.61 1.61 0 00-1.765 1.922 1.611 1.611 0 001.252 1.252 1.612 1.612 0 001.902-1.902 1.61 1.61 0 00-1.252-1.252z" fill="currentColor"/><path d="M12.4 61.392h9.874a1 1 0 000-2H12.4a1 1 0 000 2zM27.49 61.392h8.886a1 1 0 000-2H27.49a1 1 0 000 2zM25.882 57.784v-5.99a1 1 0 00-2 0v5.99a1 1 0 002 0zM24.719.172a1 1 0 011.123 0c3.024 2.052 6.988 3.424 12.03 3.896a1 1 0 01.906.977c.166 9.069-3.463 17.48-13.013 22.78a1 1 0 01-.97 0c-9.547-5.299-13.176-13.707-13.01-22.78a1 1 0 01.907-.977c5.04-.472 9.002-1.844 12.027-3.896zm.178 2.26c-2.97 1.788-6.653 3.01-11.115 3.532.088 7.901 3.354 15.112 11.498 19.837 8.147-4.727 11.414-11.94 11.502-19.837-4.464-.522-8.148-1.744-11.119-3.533l-.383-.236-.383.236z" fill="currentColor"/><path d="M22.281 13.075a3.649 3.649 0 01-.682-2.14 3.683 3.683 0 013.687-3.686 3.688 3.688 0 013.686 3.686c0 .785-.248 1.529-.692 2.147l1.042 5.54a1 1 0 01-.983 1.185h-6.116a1 1 0 01-.983-1.185l1.041-5.547zm3.947-.084a1 1 0 01.185-.787l.187-.216c.24-.299.372-.663.372-1.053 0-.93-.758-1.686-1.686-1.686-.935 0-1.687.752-1.687 1.686 0 .394.127.754.36 1.043l.186.212a1 1 0 01.189.792l-.906 4.825h3.705l-.905-4.816z" fill="currentColor"/></g></svg>
