<svg viewBox="0 0 64 64" xmlns="http://www.w3.org/2000/svg"><g fill="currentColor" fill-rule="evenodd"><path d="M3.885 23.753a63.575 63.575 0 01-1.88-12.247 3.102 3.102 0 011.733-2.96A64.66 64.66 0 0132.106 2 64.646 64.646 0 0160.25 8.44a3.096 3.096 0 011.738 2.945C60.925 31.506 50.41 50.128 33.734 61.463a3.07 3.07 0 01-3.47.003 64.83 64.83 0 01-20.105-21.954 1 1 0 00-1.746.976 66.825 66.825 0 0020.72 22.629 5.067 5.067 0 005.727-.001c17.192-11.685 28.03-30.88 29.125-51.623a5.096 5.096 0 00-2.861-4.852A66.648 66.648 0 0032.106 0 66.663 66.663 0 002.857 6.752a5.104 5.104 0 00-2.85 4.862 65.575 65.575 0 001.94 12.633 1 1 0 001.938-.494z" fill="currentColor"/><path d="M7.676 34.585a59.768 59.768 0 01-2.331-5.901 1 1 0 10-1.897.632 61.766 61.766 0 002.408 6.1 1 1 0 101.82-.831z" fill="#fabb05"/><path d="M32.53 9.14c10.293 0 18.639 8.345 18.639 18.638 0 10.295-8.345 18.64-18.64 18.64-10.293 0-18.639-8.346-18.639-18.64 0-10.293 8.346-18.639 18.64-18.639zm0 2c-9.19 0-16.64 7.45-16.64 16.638 0 9.19 7.45 16.64 16.64 16.64 9.19 0 16.639-7.45 16.639-16.64 0-9.189-7.45-16.639-16.64-16.639z" fill="currentColor"/><path d="M32.53 27.816c6.997 0 12.842 5.288 13.583 12.195a1 1 0 01-.28.805 18.539 18.539 0 01-13.304 5.601c-5.075 0-9.823-2.04-13.304-5.6a1 1 0 01-.28-.806c.741-6.907 6.586-12.195 13.584-12.195zm11.487 11.648c-.96-5.517-5.775-9.648-11.488-9.648a11.667 11.667 0 00-11.535 9.94 16.534 16.534 0 0011.535 4.661c4.229 0 8.196-1.583 11.234-4.378l.301-.284-.047-.291z" fill="currentColor"/><path d="M32.53 17.745a6.039 6.039 0 110 12.078 6.039 6.039 0 010-12.078zm0 2a4.039 4.039 0 100 8.078 4.039 4.039 0 000-8.078z" fill="currentColor"/></g></svg>
